<svg viewBox="0 0 496.1 496.1" version="1.1" id="svg5" xmlns="http://www.w3.org/2000/svg"><defs id="defs1"><style id="style1">.cls-2{fill:#fbb040}</style></defs><g id="Layer_2" data-name="Layer 2"><g id="Layer_1-2" data-name="Layer 1"><circle cx="248" cy="248" r="248" id="circle1" style="fill:#333"/><path class="cls-2" d="m323 146-25-25a71 71 0 0 1-100 0l-25 25a106 106 0 0 0 150 0Z" id="path1"/><path class="cls-2" d="m373 196-25-25a142 142 0 0 1-200 0l-25 25a177 177 0 0 0 250 0Z" id="path2"/><path class="cls-2" d="m273 96-25-25-25 25a35 35 0 0 0 50 0Z" id="path3"/><path class="cls-2" d="M106 229v45a248 248 0 0 0 284 0v-45a213 213 0 0 1-284 0Z" id="path4"/><path class="cls-2" d="M106 316v41a319 319 0 0 0 284 0v-41a284 284 0 0 1-284 0Z" id="path5"/></g></g></svg>