<svg xmlns="http://www.w3.org/2000/svg" viewBox="0 0 496.06 496.06"><defs><style>.cls-1{fill:#333;}.cls-2{fill:#fbb040;}</style></defs><g id="Layer_2" data-name="Layer 2"><g id="Layer_1-2" data-name="Layer 1"><circle class="cls-1" cx="248.03" cy="248.03" r="248.03"/><path class="cls-2" d="M323.2,146l-25.06-25a70.88,70.88,0,0,1-100.22,0l-25,25a106.29,106.29,0,0,0,150.33,0Z"/><path class="cls-2" d="M373.31,196.14l-25.06-25a141.74,141.74,0,0,1-200.44,0l-25,25a177.17,177.17,0,0,0,250.55,0Z"/><path class="cls-2" d="M273.09,95.92,248,70.87,223,95.92a35.43,35.43,0,0,0,50.11,0Z"/><path class="cls-2" d="M106.3,229.31v45.11a248,248,0,0,0,283.46,0V229.31a212.55,212.55,0,0,1-283.46,0Z"/><path class="cls-2" d="M106.3,316.4v40.19a319.38,319.38,0,0,0,283.46,0V316.4a283.76,283.76,0,0,1-283.46,0Z"/></g></g></svg>