<svg viewBox="0 0 496.1 496.1" version="1.1" id="svg5" xmlns="http://www.w3.org/2000/svg"><defs id="defs1"><style id="style1">.cls-2{fill:#fbb040}</style></defs><g id="Layer_2" data-name="Layer 2"><g id="Layer_1-2" data-name="Layer 1"><circle cx="248" cy="248" r="248" id="circle1" style="fill:#333"/><path class="cls-2" d="m323 146-25-25a71 71 0 0 1-100 0l-25 25a106 106 0 0 0 150 0Z" id="path1" style="fill:#0a0"/><path class="cls-2" d="m373 196-25-25a142 142 0 0 1-200 0l-25 25a177 177 0 0 0 250 0Z" id="path2" style="fill:#0a0"/><path class="cls-2" d="m273 96-25-25-25 25a35 35 0 0 0 50 0Z" id="path3" style="fill:#0a0"/><path class="cls-2" d="M106 229v45a248 248 0 0 0 284 0v-45a213 213 0 0 1-284 0Z" id="path4" style="fill:#0a0"/><path class="cls-2" d="M106 316v41a319 319 0 0 0 284 0v-41a284 284 0 0 1-284 0Z" id="path5" style="fill:#0a0"/><circle style="fill:red;stroke-width:.64799" id="path6" cx="121.3" cy="279.7" r="25"/><circle style="fill:#fbb040;fill-opacity:1;stroke-width:.64799" id="path6-3" cx="263.6" cy="243.8" r="25"/><circle style="fill:red;fill-opacity:1;stroke-width:.64799" id="path6-6" cx="287.7" cy="133.5" r="25"/><circle style="fill:red;fill-opacity:1;stroke-width:.64799" id="path6-6-8" cx="216.3" cy="337.9" r="25"/><circle style="fill:#fbb040;fill-opacity:1;stroke-width:.64799" id="path6-6-8-4" cx="372" cy="245.8" r="25"/><circle style="fill:#fbb040;fill-opacity:1;stroke-width:.64799" id="path6-4" cx="181.1" cy="197.8" r="25"/><circle style="fill:red;stroke-width:.64799" id="path6-37" cx="330.4" cy="341.4" r="25"/></g></g></svg>